<!-- Generated by IcoMoon.io -->
<svg version="1.1" xmlns="http://www.w3.org/2000/svg" width="1024" height="1024" viewBox="0 0 1024 1024">
<title></title>
<g id="icomoon-ignore">
</g>
<path d="M511.999 143.61c59.779-2.24 119.639-0.572 179.201 4.992 28.89-0.367 57.587 4.691 84.608 14.912 37.274 17.375 67.232 47.332 84.608 84.608 10.253 27.037 15.328 55.759 14.976 84.672 0 44.8 4.992 59.712 4.992 179.2 2.24 59.779 0.57 119.639-4.992 179.2 0.365 28.89-4.691 57.587-14.912 84.608-17.376 37.274-47.334 67.232-84.608 84.608-27.021 10.221-55.718 15.277-84.608 14.912-44.8 0-59.713 4.992-179.201 4.992-59.778 2.24-119.639 0.57-179.2-4.992-28.887 0.365-57.587-4.691-84.608-14.912-37.275-17.376-67.233-47.334-84.608-84.608-10.264-27.014-15.366-55.712-15.040-84.608 0-44.8-4.992-59.712-4.992-179.2-2.239-59.779-0.572-119.639 4.992-179.2-0.367-28.887 4.691-57.587 14.912-84.608 8.698-18.467 20.496-35.308 34.88-49.792 11.683-17.4 29.439-29.816 49.792-34.816 27.017-10.243 55.716-15.323 84.608-14.976 59.561-5.564 119.422-7.232 179.2-4.992zM511.999 63.994c-61.441-2.187-122.959-0.52-184.192 4.992-37.409-0.088-74.519 6.657-109.504 19.904-30.2 9.86-57.532 26.954-79.616 49.792-22.838 22.083-39.932 49.416-49.792 79.616-15.626 34.282-22.467 71.916-19.904 109.504-5.512 61.233-7.179 122.751-4.992 184.192-2.187 61.441-0.52 122.959 4.992 184.192-0.088 37.408 6.657 74.522 19.904 109.504 9.86 30.202 26.954 57.53 49.792 79.616 22.084 22.842 49.416 39.93 79.616 49.792 34.985 13.248 72.095 19.994 109.504 19.904 61.233 5.51 122.751 7.181 184.192 4.992 61.441 2.189 122.959 0.518 184.193-4.992 37.408 0.090 74.522-6.656 109.504-19.904 29.978-10.33 57.21-27.354 79.635-49.773 22.419-22.419 39.443-49.658 49.773-79.635 13.248-34.982 19.994-72.096 19.904-109.504 0-49.792 4.992-64.704 4.992-184.192 2.189-61.441 0.518-122.959-4.992-184.192 0.090-37.409-6.656-74.519-19.904-109.504-9.862-30.2-26.957-57.533-49.792-79.616-22.086-22.838-49.414-39.932-79.616-49.792-34.982-13.247-72.096-19.992-109.504-19.904-61.233-5.512-122.751-7.179-184.193-4.992zM511.999 283.002c-30.21-0.502-60.212 5.078-88.221 16.408s-53.454 28.179-74.819 49.544c-21.364 21.364-38.213 46.809-49.544 74.818s-16.91 58.012-16.408 88.222c0 45.29 13.43 89.564 38.592 127.221s60.926 67.006 102.769 84.337c41.843 17.338 87.885 21.869 132.306 13.037 44.42-8.838 85.22-30.65 117.246-62.675s53.837-72.826 62.669-117.246c8.838-44.42 4.301-90.463-13.030-132.305s-46.682-77.606-84.338-102.769c-37.658-25.162-81.931-38.592-127.221-38.592zM511.999 661.306c-19.706 0.358-39.281-3.264-57.557-10.643-18.276-7.373-34.878-18.36-48.815-32.297s-24.922-30.538-32.299-48.814c-7.378-18.276-10.997-37.852-10.641-57.558-0.356-19.706 3.263-39.281 10.641-57.557s18.362-34.879 32.299-48.815c13.937-13.937 30.538-24.922 48.815-32.299s37.852-10.997 57.557-10.641c19.706-0.356 39.281 3.263 57.558 10.641s34.878 18.362 48.815 32.299c13.936 13.936 24.924 30.538 32.297 48.815 7.379 18.276 11.002 37.852 10.643 57.557 0.358 19.706-3.264 39.281-10.643 57.558-7.373 18.276-18.361 34.878-32.297 48.814s-30.539 24.924-48.815 32.297c-18.276 7.379-37.852 11.002-57.558 10.643zM750.912 218.298c-10.835 0-21.427 3.213-30.438 9.233-9.005 6.020-16.032 14.576-20.173 24.586-4.147 10.011-5.235 21.026-3.123 31.653 2.118 10.627 7.334 20.388 14.995 28.050s17.421 12.879 28.051 14.993c10.624 2.114 21.645 1.029 31.654-3.117s18.566-11.168 24.582-20.177c6.022-9.009 9.235-19.601 9.235-30.436-0.115-14.493-5.926-28.36-16.173-38.609-10.253-10.249-24.115-16.058-38.611-16.175z"></path>
</svg>
