<?xml version="1.0" standalone="no"?>
<!DOCTYPE svg PUBLIC "-//W3C//DTD SVG 20010904//EN"
 "http://www.w3.org/TR/2001/REC-SVG-20010904/DTD/svg10.dtd">
<svg version="1.0" xmlns="http://www.w3.org/2000/svg"
 width="2480.000000pt" height="2480.000000pt" viewBox="0 0 2480.000000 2480.000000"
 preserveAspectRatio="xMidYMid meet">

<g transform="translate(0.000000,2480.000000) scale(0.100000,-0.100000)"
fill="#000000" stroke="none">
<path d="M7140 19319 c260 -53 449 -145 632 -305 208 -184 345 -410 420 -694
l23 -85 5 -4015 c7 -4274 4 -4078 50 -4415 158 -1162 727 -2248 1586 -3027
709 -642 1549 -1059 2469 -1227 238 -44 696 -93 713 -77 3 3 -5 6 -17 6 -84 0
-334 76 -466 142 -367 184 -663 521 -793 903 -28 84 -44 143 -74 275 -9 43
-13 969 -19 4110 -3 2230 -9 4075 -13 4100 -4 25 -13 101 -22 170 -62 522
-205 1005 -443 1495 -463 954 -1227 1716 -2186 2181 -544 264 -1057 403 -1685
459 -189 17 -251 18 -180 4z"/>
<path d="M13196 19315 c468 -88 858 -432 1013 -892 66 -198 62 -39 59 -2593
l-3 -2315 -27 -102 c-51 -192 -120 -338 -227 -480 -193 -257 -489 -440 -804
-498 -63 -11 9 -13 584 -14 650 -1 809 4 1019 35 1010 147 1909 702 2469 1524
269 395 454 851 530 1305 42 252 46 306 45 610 0 312 -9 421 -55 650 -202
1016 -883 1893 -1850 2385 -393 199 -748 308 -1234 377 -153 22 -1634 30
-1519 8z"/>
</g>
</svg>
